HIERARCHY
ROOT Hips
{
	OFFSET 0.000000 100.481300 0.000000
	CHANNELS 6 Xposition Yposition Zposition Xrotation Yrotation Zrotation
	JOINT Spine
	{
		OFFSET -0.279200 12.230698 -2.892100
		CHANNELS 3 Xrotation Yrotation Zrotation
		JOINT Spine1
		{
			OFFSET -0.325700 14.269203 -3.374200
			CHANNELS 3 Xrotation Yrotation Zrotation
			JOINT Spine2
			{
				OFFSET -0.372300 16.307602 -0.352600
				CHANNELS 3 Xrotation Yrotation Zrotation
				JOINT Neck
				{
					OFFSET -0.418800 17.814194 8.416900
					CHANNELS 3 Xrotation Yrotation Zrotation
					JOINT Head
					{
						OFFSET 0.000000 7.031097 3.806800
						CHANNELS 3 Xrotation Yrotation Zrotation
						JOINT HeadTop_End
						{
							OFFSET 0.000000 24.646606 12.978600
							CHANNELS 3 Xrotation Yrotation Zrotation
							End Site
							{
								OFFSET 0.000000 27.854965 0.000000
							}
						}
					}
				}
				JOINT LeftShoulder
				{
					OFFSET 16.952999 14.495407 -7.737500
					CHANNELS 3 Xrotation Yrotation Zrotation
					JOINT LeftArm
					{
						OFFSET 9.308998 -2.777710 0.208600
						CHANNELS 3 Xrotation Yrotation Zrotation
						JOINT LeftForeArm
						{
							OFFSET 29.972298 0.000000 0.000000
							CHANNELS 3 Xrotation Yrotation Zrotation
							JOINT LeftHand
							{
								OFFSET 26.026505 0.000000 0.000000
								CHANNELS 3 Xrotation Yrotation Zrotation
								JOINT LeftHandThumb1
								{
									OFFSET 12.240501 -7.147949 9.207150
									CHANNELS 3 Xrotation Yrotation Zrotation
									JOINT LeftHandThumb2
									{
										OFFSET 4.138618 -2.389435 2.389433
										CHANNELS 3 Xrotation Yrotation Zrotation
										JOINT LeftHandThumb3
										{
											OFFSET 2.726913 -1.574387 1.574386
											CHANNELS 3 Xrotation Yrotation Zrotation
											JOINT LeftHandThumb4
											{
												OFFSET 3.941010 -2.275345 2.275342
												CHANNELS 3 Xrotation Yrotation Zrotation
												End Site
												{
													OFFSET -0.005798 5.087799 0.009903
												}
											}
										}
									}
								}
								JOINT LeftHandIndex1
								{
									OFFSET 24.424698 -1.985611 5.953459
									CHANNELS 3 Xrotation Yrotation Zrotation
									JOINT LeftHandIndex2
									{
										OFFSET 6.426697 0.000000 0.000000
										CHANNELS 3 Xrotation Yrotation Zrotation
										JOINT LeftHandIndex3
										{
											OFFSET 5.337898 0.000000 0.000000
											CHANNELS 3 Xrotation Yrotation Zrotation
											JOINT LeftHandIndex4
											{
												OFFSET 4.409401 0.000000 0.000000
												CHANNELS 3 Xrotation Yrotation Zrotation
												End Site
												{
													OFFSET 0.000000 4.409363 0.014373
												}
											}
										}
									}
								}
								JOINT LeftHandMiddle1
								{
									OFFSET 23.810104 0.000000 0.000000
									CHANNELS 3 Xrotation Yrotation Zrotation
									JOINT LeftHandMiddle2
									{
										OFFSET 7.176498 0.000000 0.000000
										CHANNELS 3 Xrotation Yrotation Zrotation
										JOINT LeftHandMiddle3
										{
											OFFSET 6.774902 0.000000 0.000000
											CHANNELS 3 Xrotation Yrotation Zrotation
											JOINT LeftHandMiddle4
											{
												OFFSET 5.403328 0.000000 0.000000
												CHANNELS 3 Xrotation Yrotation Zrotation
												End Site
												{
													OFFSET -0.027702 5.403244 0.017414
												}
											}
										}
									}
								}
								JOINT LeftHandRing1
								{
									OFFSET 22.908401 -0.839279 -6.020567
									CHANNELS 3 Xrotation Yrotation Zrotation
									JOINT LeftHandRing2
									{
										OFFSET 6.337502 0.000000 0.000000
										CHANNELS 3 Xrotation Yrotation Zrotation
										JOINT LeftHandRing3
										{
											OFFSET 5.779297 0.000000 0.000000
											CHANNELS 3 Xrotation Yrotation Zrotation
											JOINT LeftHandRing4
											{
												OFFSET 4.965698 0.000000 0.000000
												CHANNELS 3 Xrotation Yrotation Zrotation
												End Site
												{
													OFFSET 0.000000 4.965668 0.016186
												}
											}
										}
									}
								}
								JOINT LeftHandPinky1
								{
									OFFSET 20.037003 -1.530319 -10.950146
									CHANNELS 3 Xrotation Yrotation Zrotation
									JOINT LeftHandPinky2
									{
										OFFSET 5.254700 0.000000 0.000000
										CHANNELS 3 Xrotation Yrotation Zrotation
										JOINT LeftHandPinky3
										{
											OFFSET 4.810204 0.000000 0.000000
											CHANNELS 3 Xrotation Yrotation Zrotation
											JOINT LeftHandPinky4
											{
												OFFSET 3.647202 0.000000 0.000000
												CHANNELS 3 Xrotation Yrotation Zrotation
												End Site
												{
													OFFSET 0.000000 3.647186 0.011889
												}
											}
										}
									}
								}
							}
						}
					}
				}
				JOINT RightShoulder
				{
					OFFSET -15.141001 14.495407 -7.737500
					CHANNELS 3 Xrotation Yrotation Zrotation
					JOINT RightArm
					{
						OFFSET -9.308998 -2.777710 0.208500
						CHANNELS 3 Xrotation Yrotation Zrotation
						JOINT RightForeArm
						{
							OFFSET -29.972300 0.000000 0.000000
							CHANNELS 3 Xrotation Yrotation Zrotation
							JOINT RightHand
							{
								OFFSET -26.026505 0.000000 0.000000
								CHANNELS 3 Xrotation Yrotation Zrotation
								JOINT RightHandThumb1
								{
									OFFSET -12.240601 -7.148026 9.207092
									CHANNELS 3 Xrotation Yrotation Zrotation
									JOINT RightHandThumb2
									{
										OFFSET -4.138618 -2.389435 2.389433
										CHANNELS 3 Xrotation Yrotation Zrotation
										JOINT RightHandThumb3
										{
											OFFSET -2.726974 -1.574417 1.574421
											CHANNELS 3 Xrotation Yrotation Zrotation
											JOINT RightHandThumb4
											{
												OFFSET -3.941010 -2.275345 2.275343
												CHANNELS 3 Xrotation Yrotation Zrotation
												End Site
												{
													OFFSET 0.005814 5.087799 0.009927
												}
											}
										}
									}
								}
								JOINT RightHandIndex1
								{
									OFFSET -24.424698 -1.985657 5.953444
									CHANNELS 3 Xrotation Yrotation Zrotation
									JOINT RightHandIndex2
									{
										OFFSET -6.426697 0.000000 0.000000
										CHANNELS 3 Xrotation Yrotation Zrotation
										JOINT RightHandIndex3
										{
											OFFSET -5.337898 0.000000 0.000000
											CHANNELS 3 Xrotation Yrotation Zrotation
											JOINT RightHandIndex4
											{
												OFFSET -4.409401 0.000000 0.000000
												CHANNELS 3 Xrotation Yrotation Zrotation
												End Site
												{
													OFFSET 0.000000 4.409363 0.014408
												}
											}
										}
									}
								}
								JOINT RightHandMiddle1
								{
									OFFSET -23.810097 0.000000 0.000000
									CHANNELS 3 Xrotation Yrotation Zrotation
									JOINT RightHandMiddle2
									{
										OFFSET -7.176498 0.000000 0.000000
										CHANNELS 3 Xrotation Yrotation Zrotation
										JOINT RightHandMiddle3
										{
											OFFSET -6.774902 0.000000 0.000000
											CHANNELS 3 Xrotation Yrotation Zrotation
											JOINT RightHandMiddle4
											{
												OFFSET -5.403328 0.000000 0.000000
												CHANNELS 3 Xrotation Yrotation Zrotation
												End Site
												{
													OFFSET 0.027702 5.403244 0.017457
												}
											}
										}
									}
								}
								JOINT RightHandRing1
								{
									OFFSET -22.908302 -0.839325 -6.020576
									CHANNELS 3 Xrotation Yrotation Zrotation
									JOINT RightHandRing2
									{
										OFFSET -6.337502 0.000000 0.000000
										CHANNELS 3 Xrotation Yrotation Zrotation
										JOINT RightHandRing3
										{
											OFFSET -5.779297 0.000000 0.000000
											CHANNELS 3 Xrotation Yrotation Zrotation
											JOINT RightHandRing4
											{
												OFFSET -4.965698 0.000000 0.000000
												CHANNELS 3 Xrotation Yrotation Zrotation
												End Site
												{
													OFFSET 0.000000 4.965668 0.016226
												}
											}
										}
									}
								}
								JOINT RightHandPinky1
								{
									OFFSET -20.037003 -1.530334 -10.950259
									CHANNELS 3 Xrotation Yrotation Zrotation
									JOINT RightHandPinky2
									{
										OFFSET -5.254700 0.000000 0.000000
										CHANNELS 3 Xrotation Yrotation Zrotation
										JOINT RightHandPinky3
										{
											OFFSET -4.810204 0.000000 0.000000
											CHANNELS 3 Xrotation Yrotation Zrotation
											JOINT RightHandPinky4
											{
												OFFSET -3.647202 0.000000 0.000000
												CHANNELS 3 Xrotation Yrotation Zrotation
												End Site
												{
													OFFSET 0.000000 3.647186 0.011917
												}
											}
										}
									}
								}
							}
						}
					}
				}
			}
		}
	}
	JOINT LeftUpLeg
	{
		OFFSET 15.427100 -6.655098 0.678600
		CHANNELS 3 Xrotation Yrotation Zrotation
		JOINT LeftLeg
		{
			OFFSET 4.081073 -39.591068 13.024000
			CHANNELS 3 Xrotation Yrotation Zrotation
			JOINT LeftFoot
			{
				OFFSET -4.081074 -37.707932 -15.979700
				CHANNELS 3 Xrotation Yrotation Zrotation
				JOINT LeftToeBase
				{
					OFFSET 5.346399 -15.068900 20.645000
					CHANNELS 3 Xrotation Yrotation Zrotation
					JOINT LeftToe_End
					{
						OFFSET 2.754700 0.931300 11.300900
						CHANNELS 3 Xrotation Yrotation Zrotation
						End Site
						{
							OFFSET 0.000000 11.669021 0.000000
						}
					}
				}
			}
		}
	}
	JOINT RightUpLeg
	{
		OFFSET -15.569500 -6.655098 0.678600
		CHANNELS 3 Xrotation Yrotation Zrotation
		JOINT RightLeg
		{
			OFFSET -4.081825 -39.591045 13.023800
			CHANNELS 3 Xrotation Yrotation Zrotation
			JOINT RightFoot
			{
				OFFSET 4.081824 -37.707954 -15.979600
				CHANNELS 3 Xrotation Yrotation Zrotation
				JOINT RightToeBase
				{
					OFFSET -5.346400 -15.068900 20.645000
					CHANNELS 3 Xrotation Yrotation Zrotation
					JOINT RightToe_End
					{
						OFFSET -2.754700 0.931300 11.300900
						CHANNELS 3 Xrotation Yrotation Zrotation
						End Site
						{
							OFFSET 0.000000 11.669021 0.000000
						}
					}
				}
			}
		}
	}
}
MOTION
Frames: 6
Frame Time: 0.033333
4.639620 70.316193 -6.820738 13.953845 -21.857189 -13.062516 5.143932 2.330889 5.017241 10.567102 5.980069 2.498737 10.567112 5.980062 2.498734 -3.905548 -2.134378 -3.950051 -29.653488 12.686485 6.644908 0.000001 0.000000 -0.000000 0.344381 2.030827 4.441752 2.894267 4.672395 -60.214579 0.011182 -58.806856 0.143717 62.847576 -15.778452 2.463375 -1.979896 -11.507329 -0.411191 0.239110 2.576870 2.039405 0.000007 0.000003 -0.000014 -0.000001 -0.000000 0.000000 5.661340 -2.854351 0.073362 0.329757 1.124813 -43.979158 -0.000002 -0.000000 -0.000001 -0.000000 0.000000 -0.000001 0.828240 4.748506 -11.532551 -1.733433 -3.133300 -50.864784 -0.000000 -0.000010 0.000003 -0.000000 -0.000001 -0.000005 -17.817054 18.648795 -17.460397 -1.970978 -4.440823 -53.495957 -0.000002 0.000003 0.000007 0.000001 -0.000001 0.000002 0.824261 25.353498 -32.630805 -2.609722 -8.141871 -52.243786 0.000001 -0.000000 -0.000000 0.000001 -0.000000 -0.000002 0.817224 10.759167 -11.612768 -25.352417 6.118685 77.583395 -0.033768 108.463561 0.053748 38.748305 -2.580749 -18.858243 14.833369 10.195105 -2.365188 -1.202680 -0.203465 -2.193533 0.000009 -0.000003 -0.000006 -0.000002 0.000001 -0.000001 -5.877701 -3.330487 2.913229 0.532322 -1.828207 38.598963 0.000006 -0.000007 -0.000006 -0.000003 0.000001 -0.000000 -5.488295 -1.728148 19.845425 -0.840510 1.786150 40.098019 -0.000004 -0.000003 0.000003 -0.000002 -0.000001 -0.000002 -12.412136 -5.437287 26.327451 -1.291340 4.270246 37.763187 0.000016 -0.000006 -0.000000 -0.000001 -0.000001 0.000001 -8.540133 3.460565 31.445375 -2.207826 9.105762 38.961523 -0.000001 0.000003 0.000001 0.000001 0.000003 0.000000 -8.947141 -23.227868 63.506914 111.910252 -39.091509 -34.560392 9.006666 -13.467281 5.483478 -1.467849 -0.030077 0.065860 0.000000 0.000000 0.000000 -32.114344 -4.868114 19.820837 68.812332 -1.274450 0.527789 -25.612074 8.364157 -5.334846 -28.202775 0.204024 -1.010452 0.000001 0.000000 0.000000 
3.667973 68.109360 13.288431 12.644782 -31.768490 -12.187504 5.082266 5.280879 4.071041 10.747567 8.829041 0.867674 10.747567 8.829032 0.867674 -3.492288 -1.789009 -5.000749 -32.095178 10.744752 9.597995 -0.000000 0.000000 0.000001 0.302391 6.505986 9.359007 20.494244 7.859303 -62.351520 -0.110735 -54.866971 0.078555 58.740938 -7.307960 6.060782 -3.319908 -16.591110 -6.992223 -0.300155 1.637523 1.915691 0.000007 0.000003 -0.000013 0.000000 -0.000000 -0.000000 4.588521 -2.198479 -2.155164 0.322399 1.056598 -43.633724 0.000000 -0.000002 -0.000000 -0.000002 -0.000002 -0.000002 0.985335 5.189984 -13.638857 -1.751908 -3.223704 -51.183078 0.000001 -0.000011 -0.000002 0.000001 -0.000000 0.000003 -17.160861 18.301997 -20.967675 -1.955578 -4.353103 -53.303913 -0.000006 0.000003 0.000008 0.000000 0.000001 -0.000001 3.679864 23.831657 -39.391286 -2.237661 -7.530668 -49.593307 0.000004 -0.000001 0.000000 0.000001 -0.000000 0.000001 0.025633 15.290270 -11.256800 -34.504196 8.607037 81.961526 0.020970 124.294335 0.014445 45.116593 -4.036976 -32.393193 20.566345 7.592600 -10.868736 -1.202696 -0.203436 -2.193523 0.000010 -0.000002 -0.000003 -0.000001 0.000000 0.000002 -7.098868 -4.812807 2.165046 0.508839 -1.751185 38.108156 0.000004 -0.000003 -0.000009 -0.000001 0.000001 0.000000 -5.463292 -0.099058 19.268667 -0.939861 1.995723 43.013557 -0.000005 -0.000003 0.000001 -0.000001 -0.000001 -0.000001 -12.029092 -4.161142 24.631028 -1.342407 4.233815 38.170567 0.000013 -0.000002 -0.000005 0.000002 0.000001 -0.000001 -8.263221 4.759746 32.995210 -1.280421 7.797919 32.643192 0.000003 -0.000001 -0.000002 -0.000000 -0.000001 -0.000002 -69.789008 -24.015118 34.557851 126.008002 -7.048628 -5.055870 24.449793 -6.485003 -8.582087 0.924916 -0.025989 0.060477 0.000000 0.000000 0.000000 -10.407052 9.386455 11.825761 58.137136 3.485111 2.377047 -38.829339 12.214820 -2.548397 -28.533675 0.207534 -1.012421 0.000000 0.000000 0.000000 
0.272579 70.851730 31.365686 13.947315 -34.649184 -8.248567 4.836815 7.018821 2.298202 10.412456 10.160224 -1.704359 10.412455 10.160218 -1.704357 -5.705830 -1.715140 -4.940616 -29.935066 6.022987 11.066076 0.000000 -0.000000 -0.000000 0.096910 8.791048 11.840523 37.200188 4.749189 -57.850835 -0.166807 -60.919024 0.042685 47.268601 0.877754 12.993304 4.779520 -17.128786 -0.512005 -0.593585 1.008096 1.945745 0.000008 0.000003 -0.000013 0.000000 -0.000002 -0.000000 2.897970 -1.697520 -2.244027 0.186958 0.976290 -39.795981 0.000000 0.000001 0.000001 0.000000 -0.000001 -0.000001 0.930478 5.396108 -11.387095 -1.462621 -3.008187 -45.864440 -0.000003 -0.000010 0.000000 -0.000002 0.000001 -0.000002 -15.262594 15.926106 -20.249423 -1.592853 -4.005590 -48.249518 -0.000003 0.000002 0.000006 -0.000001 0.000001 -0.000002 2.344471 20.954062 -34.882343 -1.515252 -6.540269 -42.971613 -0.000003 0.000001 0.000001 -0.000002 0.000001 -0.000001 -0.305934 15.971752 -12.503527 -38.372013 13.571270 82.530904 0.025282 132.982854 0.031131 44.182967 -6.912831 -32.343497 19.833700 9.441463 -11.627284 -0.767733 -0.995222 -2.215795 0.000013 -0.000002 -0.000007 -0.000002 0.000000 -0.000000 -7.164458 -3.400234 2.631658 0.342943 -1.577749 34.004244 0.000003 -0.000012 -0.000007 0.000002 -0.000001 -0.000000 -4.992872 0.693610 16.498066 -0.864496 1.969807 40.781984 -0.000005 -0.000001 0.000002 -0.000001 0.000001 0.000000 -10.092235 -3.751386 20.182149 -1.146381 3.874629 34.939109 0.000011 0.000002 0.000001 -0.000000 0.000000 -0.000001 -6.261080 3.318247 30.375122 -0.837004 6.675493 28.321914 0.000001 0.000001 0.000001 0.000005 0.000000 -0.000001 -86.389694 -19.671235 27.502112 111.483154 2.454653 -1.018938 22.956259 0.200012 -3.530704 -0.928203 -0.028821 0.064665 -0.000001 0.000000 -0.000000 12.263530 11.004459 -0.190815 33.943072 3.402988 1.595585 -35.234292 15.472095 1.344496 -28.676027 0.229017 -1.022728 -0.000000 0.000001 0.000000 
-2.287354 75.217072 47.865234 16.542052 -32.978435 -4.331536 4.094678 7.447099 0.463841 8.940470 10.483363 -4.167509 8.940490 10.483363 -4.167514 -4.516739 -2.350586 -3.715564 -29.155318 1.179689 12.016413 0.000000 0.000000 0.000000 -0.078454 9.472567 12.386467 50.378929 -0.527709 -51.961740 -0.186033 -68.767813 0.015770 34.886567 1.962720 18.106210 15.804785 -11.988672 7.339655 -0.889432 0.410540 1.949970 0.000007 -0.000002 -0.000013 0.000000 0.000000 -0.000000 1.024921 -1.321719 -2.715678 0.076319 0.879378 -36.213834 -0.000002 0.000003 0.000002 -0.000001 -0.000001 0.000002 1.043156 7.027854 -9.084137 -1.179047 -2.757672 -40.291846 0.000003 -0.000013 0.000001 0.000002 0.000000 0.000002 -12.505460 14.251845 -20.532717 -1.227621 -3.584246 -42.615606 -0.000005 0.000001 0.000006 0.000003 -0.000003 0.000001 0.409823 17.587216 -26.721302 -0.922498 -5.427881 -36.112771 0.000001 0.000001 -0.000001 -0.000001 0.000000 -0.000001 -0.355923 14.231282 -12.775039 -37.963568 19.064200 78.834692 0.021936 139.936984 0.051719 38.630700 -11.284176 -29.027242 15.442356 16.307066 -10.332843 -0.276172 -1.894951 -2.232592 0.000016 -0.000001 -0.000006 0.000002 -0.000001 0.000001 -6.677173 0.277740 3.406491 0.186305 -1.358825 29.168791 0.000002 -0.000008 -0.000011 0.000000 -0.000002 -0.000002 -4.429294 0.513216 12.996619 -0.745914 1.880032 37.191377 -0.000004 -0.000003 -0.000001 -0.000001 0.000001 0.000002 -8.061585 -4.338389 13.862066 -0.919611 3.418138 30.832389 0.000013 -0.000002 -0.000002 -0.000000 -0.000000 0.000001 -4.493195 0.258110 26.772825 -0.718556 5.850072 26.164990 -0.000001 -0.000001 -0.000001 -0.000000 -0.000001 0.000000 -86.176784 -12.476006 26.190564 90.501571 5.515029 -1.668748 10.051836 6.796686 -3.775002 -6.693779 -0.038382 0.077058 0.000001 -0.000000 0.000000 21.652724 2.809571 -5.108400 17.585598 7.933916 1.451068 -7.628100 18.329253 -5.161139 -50.269738 0.341299 -0.544068 -0.000000 -0.000000 0.000000 
-4.051672 77.877861 61.954140 18.109208 -29.004050 -1.705290 3.314324 7.167692 -1.713753 7.103693 10.037340 -5.621954 7.103681 10.037342 -5.621951 -3.394149 -3.096955 -1.153555 -27.364989 -2.102725 11.646660 0.000000 -0.000000 0.000000 -0.117514 8.659688 11.635018 57.302985 -8.427744 -48.538729 -0.180338 -71.190898 -0.000047 22.684510 -0.693090 18.763269 22.941760 -5.412501 7.429966 -1.046549 0.169605 1.964013 0.000008 0.000002 -0.000013 0.000000 -0.000000 -0.000001 -0.888405 -0.499386 -4.739543 0.004441 0.775798 -33.143261 -0.000004 -0.000000 -0.000002 0.000000 -0.000002 0.000001 0.991235 7.911285 -7.745018 -0.948893 -2.529258 -35.453432 -0.000001 -0.000008 -0.000001 0.000003 -0.000001 0.000000 -9.460812 12.869751 -20.983306 -0.974124 -3.210093 -38.173931 -0.000003 0.000003 0.000004 -0.000001 -0.000001 -0.000000 -0.448841 14.355669 -18.945227 -0.547848 -4.349956 -30.029258 0.000007 0.000002 -0.000002 -0.000003 0.000002 -0.000003 -0.825696 11.392933 -8.838595 -31.054012 22.995925 71.679536 0.011909 141.163563 0.050080 31.862542 -11.551783 -27.832176 11.562138 20.568384 -8.912396 0.242511 -2.849413 -2.240587 0.000009 -0.000000 -0.000008 -0.000002 0.000002 -0.000000 -5.746461 4.964848 2.796616 0.066844 -1.117078 24.158304 0.000002 -0.000009 -0.000012 0.000001 -0.000002 -0.000003 -3.691349 0.169178 8.055446 -0.594468 1.718756 32.375230 0.000001 0.000001 0.000003 0.000001 0.000002 0.000005 -6.168153 -6.241199 7.416246 -0.724511 2.945581 26.701231 0.000013 -0.000001 -0.000002 0.000002 -0.000001 0.000001 -2.717068 -2.595694 23.952312 -0.646002 5.069933 24.233909 -0.000002 -0.000003 0.000001 0.000002 0.000001 0.000002 -84.764963 -4.219968 23.210332 68.677928 8.069495 -1.465225 -4.483655 14.107059 -4.601539 -5.101364 -0.035246 0.073775 0.000001 0.000000 0.000000 16.789542 5.715408 -3.988150 20.183783 8.325572 0.531071 22.331271 11.072285 2.082608 -69.975022 14.400074 -8.377904 0.000000 0.000000 0.000000 
-4.659174 79.030151 74.668663 17.193844 -25.398374 -2.310990 2.651976 6.679224 -2.947712 5.379037 9.326858 -4.751436 5.379029 9.326863 -4.751435 -0.410547 -2.704211 -0.771326 -27.984837 -5.091521 12.012385 -0.000000 0.000000 -0.000000 0.028159 9.027723 8.484860 55.830168 -17.932781 -47.362383 -0.170346 -66.105699 -0.002729 10.624193 -2.077258 18.871355 29.640303 0.172084 7.578489 -1.083344 0.180302 2.003533 0.000007 0.000003 -0.000012 -0.000000 0.000000 0.000000 -2.623962 0.208000 -6.257377 -0.042670 0.650945 -29.197071 0.000003 -0.000001 0.000000 0.000005 0.000000 -0.000002 0.769541 7.596386 -7.216554 -0.699490 -2.212756 -29.712972 -0.000002 -0.000011 0.000002 -0.000000 0.000000 -0.000001 -6.802296 11.017753 -20.435533 -0.730925 -2.793857 -33.306854 -0.000004 0.000001 0.000006 0.000002 -0.000001 -0.000001 -0.432970 11.905887 -11.732081 -0.317388 -3.339313 -24.400311 0.000000 0.000001 -0.000003 -0.000000 -0.000000 -0.000002 -1.307746 8.243900 -1.082489 -17.161282 25.378744 62.741223 -0.014893 132.668064 0.045422 25.235416 -6.250398 -28.271249 5.979817 25.809224 -6.997375 0.759363 -3.805118 -2.238507 0.000012 -0.000003 -0.000004 0.000000 0.000000 -0.000001 -4.995594 8.195021 2.575461 -0.002984 -0.880967 19.452329 0.000002 -0.000008 -0.000012 -0.000001 0.000000 -0.000000 -2.966654 0.047350 3.881640 -0.456561 1.542781 27.670210 -0.000002 -0.000001 0.000001 -0.000000 0.000000 -0.000001 -4.352420 -7.961309 2.319333 -0.563649 2.474414 22.633567 0.000011 -0.000003 -0.000005 -0.000001 0.000000 -0.000000 -1.024309 -5.131997 20.232091 -0.649858 4.479110 23.166709 0.000003 -0.000004 -0.000004 0.000004 -0.000001 -0.000001 -79.829571 4.528047 20.169673 48.073173 9.637633 -0.393630 -15.068704 14.810130 -3.144684 -0.202790 -0.026842 0.063094 0.000002 -0.000001 -0.000002 10.793950 7.722145 -1.431191 33.112112 7.396217 2.579943 32.555311 4.482353 -2.254714 -2.306023 -0.019309 2.532685 0.000000 0.000000 -0.000001 
